<?xml version="1.0" encoding="utf-8"?>
<!-- Generator: Adobe Illustrator 21.1.0, SVG Export Plug-In . SVG Version: 6.00 Build 0)  -->
<svg version="1.1" id="Layer_1" xmlns="http://www.w3.org/2000/svg" xmlns:xlink="http://www.w3.org/1999/xlink" x="0px" y="0px"
	 viewBox="0 0 512 512" style="enable-background:new 0 0 512 512;" xml:space="preserve">
<style type="text/css">
	.st0{fill:#013243;}
</style>
<g>
	<g>
		<g>
			<path class="st0" d="M341.3,273.1c75.3,0,136.5-61.3,136.5-136.5S416.6,0,341.3,0S204.8,61.3,204.8,136.5
				S266.1,273.1,341.3,273.1z M341.3,17.1c65.9,0,119.5,53.6,119.5,119.5S407.2,256,341.3,256s-119.5-53.6-119.5-119.5
				S275.5,17.1,341.3,17.1z"/>
			<path class="st0" d="M507.4,358.4c-9.4-16.3-30.4-21.9-46.1-12.8l-98.2,47.8c-15.3,7.6-30.7,7.6-64.5,7.6
				c-33,0-83.4-8.3-83.9-8.4c-4.7-0.8-9.1,2.4-9.8,7c-0.8,4.7,2.4,9.1,7,9.8c2.1,0.4,52.3,8.7,86.7,8.7c35.4,0,53.2,0,72-9.4
				l98.7-48.1c3.9-2.3,8.5-2.9,13-1.7c4.4,1.2,8.1,4,10.4,8c2.3,4,2.9,8.5,1.7,13s-4,8.1-8.2,10.5l-115.4,71.8
				c-0.2,0.2-24.9,15.7-80.6,15.7c-48.4,0-123.1-41.2-124.2-41.8c-0.8-0.4-19.3-9.4-55-9.4c-4.7,0-8.5,3.8-8.5,8.5s3.8,8.5,8.5,8.5
				c31,0,47,7.5,47.1,7.5v0c3.2,1.8,79.3,43.7,132.1,43.7c61.6,0,88.9-17.7,89.8-18.4l115-71.6c7.9-4.6,13.5-11.9,15.9-20.7
				C513.2,375.5,512,366.3,507.4,358.4z"/>
			<path class="st0" d="M341.3,179.2c-9.4,0-17.1-7.7-17.1-17.1c0-4.7-3.8-8.5-8.5-8.5s-8.5,3.8-8.5,8.5c0,15.9,10.9,29.1,25.6,32.9
				v1.2c0,4.7,3.8,8.5,8.5,8.5s8.5-3.8,8.5-8.5v-1.2c14.7-3.8,25.6-17.1,25.6-32.9c0-18.8-15.3-34.1-34.1-34.1
				c-9.4,0-17.1-7.7-17.1-17.1c0-9.4,7.7-17.1,17.1-17.1c9.4,0,17.1,7.7,17.1,17.1c0,4.7,3.8,8.5,8.5,8.5s8.5-3.8,8.5-8.5
				c0-15.9-10.9-29.1-25.6-32.9v-1.2c0-4.7-3.8-8.5-8.5-8.5s-8.5,3.8-8.5,8.5V78c-14.7,3.8-25.6,17.1-25.6,32.9
				c0,18.8,15.3,34.1,34.1,34.1c9.4,0,17.1,7.7,17.1,17.1C358.4,171.6,350.7,179.2,341.3,179.2z"/>
			<path class="st0" d="M59.7,273.1H8.5c-4.7,0-8.5,3.8-8.5,8.5s3.8,8.5,8.5,8.5h51.2c4.7,0,8.5,3.8,8.5,8.5v187.7
				c0,4.7-3.8,8.5-8.5,8.5H8.5c-4.7,0-8.5,3.8-8.5,8.5s3.8,8.5,8.5,8.5h51.2c14.1,0,25.6-11.5,25.6-25.6V298.7
				C85.3,284.6,73.8,273.1,59.7,273.1z"/>
			<path class="st0" d="M110.9,324.3h68.3c10,0,26.9,12.7,41.8,23.9c18.7,14,36.4,27.3,52.1,27.3h51.2c13,0,19.4,5.9,19.6,6
				c1.7,1.7,3.8,2.5,6,2.5c2.2,0,4.4-0.8,6-2.5c3.3-3.3,3.3-8.7,0-12.1c-1.1-1.1-11.6-11-31.6-11h-51.2c-10,0-26.9-12.7-41.8-23.9
				c-18.7-14-36.4-27.3-52.1-27.3h-68.3c-4.7,0-8.5,3.8-8.5,8.5S106.2,324.3,110.9,324.3z"/>
			<path class="st0" d="M42.7,456.5c0-7.1-5.7-12.8-12.8-12.8s-12.8,5.7-12.8,12.8c0,7.1,5.7,12.8,12.8,12.8
				C36.9,469.3,42.7,463.6,42.7,456.5z"/>
		</g>
	</g>
</g>
</svg>
