<?xml version="1.0" encoding="utf-8"?>
<!-- Generator: Adobe Illustrator 21.1.0, SVG Export Plug-In . SVG Version: 6.00 Build 0)  -->
<svg version="1.1" id="Layer_1" xmlns="http://www.w3.org/2000/svg" xmlns:xlink="http://www.w3.org/1999/xlink" x="0px" y="0px"
	 viewBox="0 0 427.6 427.6" style="enable-background:new 0 0 427.6 427.6;" xml:space="preserve">
<style type="text/css">
	.st0{fill:#013243;}
</style>
<g>
	<g>
		<path class="st0" d="M47.7,151.5l38.6,10.5c0.5,0.1,1,0.2,1.5,0.2c2.5,0,4.7-1.6,5.4-4.1c0.8-3-1-6.1-3.9-6.9l-38.6-10.5
			c-3-0.8-6,1-6.9,3.9C43,147.6,44.7,150.7,47.7,151.5z"/>
		<path class="st0" d="M213.8,51c3-0.1,5.3-2.6,5.3-5.6l-0.1-40c0-2.9-2.4-5.2-5.2-5.5c-2.8,0.2-5.2,2.5-5.2,5.5l-0.1,40
			C208.4,48.5,210.8,50.9,213.8,51z"/>
		<path class="st0" d="M108.1,106c1.1,0.9,2.3,1.3,3.6,1.3c1.6,0,3.2-0.7,4.3-2c2-2.4,1.7-5.9-0.7-7.9L84.8,71.7
			c-2.4-2-5.9-1.7-7.9,0.7c-2,2.4-1.7,5.9,0.7,7.9L108.1,106z"/>
		<path class="st0" d="M334.4,158c0.7,2.5,2.9,4.1,5.4,4.1c0.5,0,1-0.1,1.5-0.2l38.6-10.5c3-0.8,4.7-3.9,3.9-6.9
			c-0.8-3-3.9-4.7-6.9-3.9l-38.6,10.5C335.4,152,333.6,155,334.4,158z"/>
		<path class="st0" d="M268.6,67.4c0.8,0.3,1.6,0.5,2.3,0.5c2.1,0,4.1-1.2,5.1-3.3l16.8-36.3c1.3-2.8,0.1-6.1-2.7-7.4
			c-2.8-1.3-6.1-0.1-7.4,2.7l-16.8,36.3C264.5,62.7,265.8,66.1,268.6,67.4z"/>
		<path class="st0" d="M315.8,107.4c1.3,0,2.6-0.4,3.6-1.3L350,80.3c2.4-2,2.7-5.5,0.7-7.9c-2-2.4-5.5-2.7-7.9-0.7l-30.5,25.8
			c-2.4,2-2.7,5.5-0.7,7.9C312.6,106.7,314.2,107.4,315.8,107.4z"/>
		<path class="st0" d="M151.6,64.6c0.9,2,3,3.3,5.1,3.3c0.8,0,1.6-0.2,2.3-0.5c2.8-1.3,4-4.6,2.7-7.4L145,23.7
			c-1.3-2.8-4.6-4-7.4-2.7c-2.8,1.3-4,4.6-2.7,7.4L151.6,64.6z"/>
		<path class="st0" d="M347.9,288.2l-32.8-22.8c-2.5-1.8-6-1.1-7.8,1.4c-1.8,2.5-1.1,6,1.4,7.8l32.8,22.8c1,0.7,2.1,1,3.2,1
			c1.8,0,3.5-0.8,4.6-2.4C351.1,293.4,350.5,289.9,347.9,288.2z"/>
		<path class="st0" d="M213.8,70.3c-58.5,0-106,47.4-106,106c0,58,23.6,75,47.1,107.9c15.5,21.7,15.5,46.2,15.5,46.2v50.1h86.6
			v-50.1h0c0,0,0-24.5,15.5-46.2c23.6-32.9,47.1-49.9,47.1-107.9C319.7,117.8,272.3,70.3,213.8,70.3z M224.2,281.4h-20.9v-43.3
			c0-7.3-2.5-15-5-22.5c-2.9-8.9-5.9-18.1-2.7-22.5c2.3-3.2,8.6-4.9,18.2-4.9c9.6,0,15.9,1.7,18.2,4.8c3.1,4.3,0.1,13.3-2.8,22.1
			c-2.5,7.6-5.1,15.4-5.1,23C224.1,247.5,224.1,264.5,224.2,281.4z M262.4,276.9c-10.5,14.7-14.8,30.4-16.6,41h-2.3v-19.7
			c0-6.9-4.2-12.9-10.2-15.4c0-17.3-0.1-35-0.1-44.6c0-6.1,2.4-13.2,4.6-20.1c3.6-10.9,7.3-22.2,1.5-30.2
			c-4.2-5.9-12.3-8.6-25.5-8.6c-13.1,0-21.3,2.7-25.5,8.6c-5.9,8.1-2.2,19.6,1.4,30.6c2.2,6.8,4.5,13.8,4.5,19.7v44.7
			c-5.9,2.6-10.1,8.5-10.1,15.4v19.7h-2.3c-1.8-10.6-6.1-26.3-16.6-40.9c-4.5-6.3-8.9-11.9-13.2-17.4
			c-18.3-23.4-31.6-40.2-31.6-83.2c0-51.5,41.9-93.4,93.4-93.4c51.5,0,93.4,41.9,93.4,93.4c0,43-13.3,59.9-31.6,83.3
			C271.3,265,266.9,270.6,262.4,276.9z"/>
		<path class="st0" d="M378.8,217.6l-39.4-6.8c-3-0.5-5.9,1.5-6.5,4.6c-0.5,3,1.5,5.9,4.6,6.5l39.4,6.8c0.3,0.1,0.6,0.1,1,0.1
			c2.7,0,5-1.9,5.5-4.6C383.9,221.1,381.8,218.2,378.8,217.6z"/>
		<path class="st0" d="M213.8,427.6c11.7,0,21.2-9.5,21.2-21.2h-42.4C192.6,418.1,202.1,427.6,213.8,427.6z"/>
		<path class="st0" d="M112.4,265.3l-32.8,22.8c-2.5,1.8-3.2,5.2-1.4,7.8c1.1,1.6,2.8,2.4,4.6,2.4c1.1,0,2.2-0.3,3.2-1l32.8-22.8
			c2.5-1.8,3.2-5.2,1.4-7.8C118.5,264.2,115,263.6,112.4,265.3z"/>
		<path class="st0" d="M94.6,215.4c-0.5-3-3.4-5.1-6.5-4.6l-39.4,6.8c-3,0.5-5.1,3.4-4.6,6.5c0.5,2.7,2.8,4.6,5.5,4.6
			c0.3,0,0.6,0,1-0.1l39.4-6.8C93.1,221.3,95.2,218.4,94.6,215.4z"/>
	</g>
</g>
</svg>
